<?xml version="1.0" encoding="UTF-8"?>
<svg id="Layer_2" data-name="Layer 2" xmlns="http://www.w3.org/2000/svg" viewBox="0 0 1304.1 527.38">
  <defs>
    <style>
      .cls-1 {
        fill: #ea443f;
      }

      .cls-2 {
        fill: #b4bbc9;
      }

      .cls-3 {
        fill: #aed136;
      }

      .cls-4 {
        fill: #1e61aa;
      }

      .cls-5 {
        fill: #43b8d4;
      }

      .cls-6, .cls-7 {
        fill: #1b3259;
      }

      .cls-8, .cls-9 {
        fill: #962d1f;
      }

      .cls-10, .cls-11 {
        fill: #2e7a3c;
      }

      .cls-12 {
        fill: none;
        stroke-linecap: round;
        stroke-width: .77px;
      }

      .cls-12, .cls-9, .cls-7, .cls-11 {
        stroke: #fff;
      }

      .cls-9, .cls-7, .cls-11 {
        stroke-width: .5px;
      }
    </style>
  </defs>
  <g id="Layer_1-2" data-name="Layer 1">
    <g>
      <g>
        <polyline class="cls-6" points="619.13 24.96 619.13 300.74 709.92 365.63 715.94 69.64 617.79 22.86"/>
        <polygon class="cls-4" points="825.44 43.1 715.94 69.64 709.92 365.63 819.43 312.57 825.44 43.1"/>
        <path class="cls-2" d="m873.92,135.31l-2.05-.09c36.91,28.47,58.42,63.54,57.19,100.78-2.88,87.85-130.71,154.56-285.5,149.01-154.79-5.57-277.94-81.29-275.06-169.13,1.04-31.52,18.22-60.28,46.89-83.99l-2.01-.08c-39.57,26.76-63.71,61.06-64.96,99.18-3.04,92.47,129.54,172.29,296.13,178.27,166.58,5.99,304.09-64.13,307.12-156.61,1.46-44.27-28.21-85.6-77.75-117.34Z"/>
        <polyline class="cls-12" points="617.79 115.24 713.72 167.84 828.57 130.13"/>
        <polygon class="cls-3" points="520.97 65.45 619.68 117.11 619.13 47.3 520.97 65.45"/>
        <polygon class="cls-10" points="619.68 115.71 619.68 300.01 516.97 234.85 521.09 65.45 619.68 115.71"/>
        <polyline class="cls-12" points="519.3 151.66 712.83 268.81 825.89 225.08"/>
        <polygon class="cls-1" points="518.97 149.57 520.77 74.48 430.61 94.3 518.97 149.57"/>
        <polygon class="cls-8" points="518.91 149.27 519.91 236.83 430.94 171.26 430.94 94.02 518.91 149.27"/>
        <polygon class="cls-5" points="824.94 43.1 715.94 69.81 618.29 23.56 730.62 0 824.94 43.1"/>
      </g>
      <path class="cls-7" d="m.25,452.28h14.39v73.01H.25v-73.01Z"/>
      <path class="cls-7" d="m31,452.28h13.9l32.58,48.05v-48.05h14.49v73.01h-13.94l-32.54-47.89v47.89h-14.49v-73.01Z"/>
      <path class="cls-7" d="m109.41,452.28h17.17c11.07,0,19.29,1.31,24.66,3.95,5.38,2.63,9.81,6.9,13.29,12.83,3.48,5.92,5.22,12.84,5.22,20.75,0,5.62-.97,10.79-2.92,15.51-1.95,4.71-4.64,8.63-8.07,11.74-3.43,3.11-7.14,5.26-11.14,6.45-4,1.19-10.93,1.78-20.79,1.78h-17.43v-73.01Zm14.39,13.4v46.06h6.73c6.62,0,11.43-.73,14.42-2.19,2.98-1.46,5.42-3.91,7.32-7.35,1.89-3.45,2.85-7.69,2.85-12.72,0-7.75-2.26-13.76-6.78-18.04-4.07-3.84-10.61-5.76-19.61-5.76h-4.92Z"/>
      <path class="cls-7" d="m183.06,452.28h14.55v47.21c0,4.07.37,6.95,1.11,8.63.74,1.68,1.97,3.03,3.68,4.04,1.71,1.01,3.77,1.51,6.18,1.51,2.55,0,4.75-.56,6.6-1.68,1.85-1.12,3.12-2.56,3.83-4.29.71-1.74,1.06-5.05,1.06-9.94v-45.48h14.55v43.53c0,7.35-.43,12.44-1.3,15.29-.86,2.85-2.51,5.59-4.94,8.24-2.43,2.65-5.24,4.61-8.41,5.88-3.18,1.27-6.87,1.91-11.08,1.91-5.52,0-10.32-1.22-14.41-3.65-4.09-2.43-7.01-5.48-8.77-9.13-1.76-3.65-2.64-9.84-2.64-18.54v-43.53Z"/>
      <path class="cls-7" d="m291.39,462.21l-10.73,9.08c-3.77-5.03-7.61-7.54-11.51-7.54-1.9,0-3.45.49-4.67,1.46-1.2.98-1.81,2.08-1.81,3.3s.44,2.38,1.3,3.47c1.18,1.46,4.72,4.58,10.63,9.38,5.52,4.43,8.88,7.23,10.05,8.39,2.94,2.85,5.02,5.57,6.25,8.17,1.23,2.6,1.84,5.43,1.84,8.51,0,5.99-2.16,10.94-6.48,14.84-4.32,3.91-9.95,5.86-16.89,5.86-5.43,0-10.15-1.27-14.17-3.82-4.03-2.55-7.48-6.55-10.34-12.01l12.19-7.05c3.66,6.45,7.88,9.68,12.65,9.68,2.49,0,4.58-.69,6.27-2.08,1.7-1.39,2.54-2.99,2.54-4.81,0-1.65-.64-3.31-1.91-4.96-1.28-1.65-4.1-4.19-8.46-7.59-8.29-6.48-13.65-11.49-16.07-15.02-2.42-3.52-3.63-7.04-3.63-10.55,0-5.06,2.01-9.41,6.04-13.03,4.02-3.62,8.99-5.43,14.9-5.43,3.8,0,7.42.84,10.85,2.53,3.45,1.69,7.16,4.76,11.17,9.23Z"/>
      <path class="cls-7" d="m299.05,452.28h42.08v13.7h-13.87v59.31h-14.7v-59.31h-13.51v-13.7Z"/>
      <path class="cls-7" d="m352.05,452.28h15.35c8.41,0,14.4.72,17.97,2.16,3.57,1.44,6.43,3.83,8.6,7.17,2.18,3.34,3.26,7.3,3.26,11.86,0,4.8-1.2,8.81-3.6,12.04-2.4,3.22-6.01,5.67-10.84,7.32l18.04,32.46h-15.84l-17.12-30.92h-1.32v30.92h-14.49v-73.01Zm14.49,28.54h4.54c4.6,0,7.78-.58,9.51-1.74,1.74-1.16,2.61-3.09,2.61-5.78,0-1.59-.43-2.98-1.29-4.16-.86-1.18-2.01-2.02-3.45-2.54-1.44-.51-4.1-.77-7.95-.77h-3.97v14.99Z"/>
      <path class="cls-7" d="m411.53,452.28h14.39v73.01h-14.39v-73.01Z"/>
      <path class="cls-7" d="m465.45,452.28h14.7l29.29,73.01h-15.07l-5.96-15.04h-31.07l-6.19,15.04h-15.07l29.36-73.01Zm7.44,19.36l-10.22,25.06h20.37l-10.16-25.06Z"/>
      <path class="cls-7" d="m520.64,452.28h14.49v59.76h21.11v13.25h-35.61v-73.01Z"/>
      <path class="cls-11" d="m636.89,462.21l-10.74,9.08c-3.76-5.03-7.6-7.54-11.51-7.54-1.9,0-3.45.49-4.67,1.46-1.21.98-1.82,2.08-1.82,3.3s.44,2.38,1.3,3.47c1.18,1.46,4.71,4.58,10.63,9.38,5.53,4.43,8.88,7.23,10.06,8.39,2.94,2.85,5.02,5.57,6.25,8.17,1.22,2.6,1.84,5.43,1.84,8.51,0,5.99-2.16,10.94-6.48,14.84-4.31,3.91-9.95,5.86-16.9,5.86-5.42,0-10.14-1.27-14.16-3.82-4.03-2.55-7.48-6.55-10.34-12.01l12.19-7.05c3.66,6.45,7.87,9.68,12.64,9.68,2.48,0,4.57-.69,6.27-2.08,1.69-1.39,2.54-2.99,2.54-4.81,0-1.65-.65-3.31-1.92-4.96-1.28-1.65-4.09-4.19-8.45-7.59-8.29-6.48-13.66-11.49-16.08-15.02-2.42-3.52-3.62-7.04-3.62-10.55,0-5.06,2-9.41,6.03-13.03,4.03-3.62,9-5.43,14.9-5.43,3.8,0,7.43.84,10.86,2.53,3.44,1.69,7.16,4.76,11.17,9.23Z"/>
      <path class="cls-11" d="m688,450.45c10.78,0,20.04,3.74,27.79,11.22,7.74,7.48,11.62,16.6,11.62,27.35s-3.82,19.67-11.47,27.05c-7.65,7.38-16.93,11.07-27.84,11.07s-20.93-3.79-28.49-11.37c-7.56-7.58-11.34-16.58-11.34-27,0-6.98,1.76-13.4,5.28-19.26,3.52-5.86,8.37-10.5,14.53-13.92,6.17-3.43,12.8-5.14,19.91-5.14Zm-.16,13.6c-7.04,0-12.97,2.35-17.77,7.05-4.8,4.7-7.2,10.67-7.2,17.92,0,8.07,3.02,14.46,9.06,19.16,4.7,3.67,10.09,5.51,16.17,5.51,6.87,0,12.72-2.38,17.56-7.15,4.84-4.76,7.25-10.64,7.25-17.62s-2.44-12.83-7.3-17.64c-4.87-4.81-10.79-7.22-17.77-7.22Z"/>
      <path class="cls-11" d="m741.08,452.28h14.49v59.76h21.11v13.25h-35.61v-73.01Z"/>
      <path class="cls-11" d="m787.19,452.28h14.54v47.21c0,4.07.36,6.95,1.11,8.63.74,1.68,1.96,3.03,3.68,4.04,1.71,1.01,3.77,1.51,6.18,1.51,2.55,0,4.75-.56,6.6-1.68,1.84-1.12,3.12-2.56,3.83-4.29.71-1.74,1.06-5.05,1.06-9.94v-45.48h14.55v43.53c0,7.35-.43,12.44-1.3,15.29-.86,2.85-2.51,5.59-4.94,8.24-2.44,2.65-5.24,4.61-8.41,5.88-3.17,1.27-6.87,1.91-11.08,1.91-5.52,0-10.32-1.22-14.42-3.65-4.08-2.43-7.01-5.48-8.77-9.13-1.76-3.65-2.64-9.84-2.64-18.54v-43.53Z"/>
      <path class="cls-11" d="m848.06,452.28h42.08v13.7h-13.87v59.31h-14.69v-59.31h-13.51v-13.7Z"/>
      <path class="cls-11" d="m899.04,452.28h14.39v73.01h-14.39v-73.01Z"/>
      <path class="cls-11" d="m965.68,450.45c10.78,0,20.04,3.74,27.79,11.22,7.75,7.48,11.63,16.6,11.63,27.35s-3.83,19.67-11.47,27.05c-7.65,7.38-16.93,11.07-27.85,11.07s-20.92-3.79-28.49-11.37c-7.55-7.58-11.34-16.58-11.34-27,0-6.98,1.76-13.4,5.28-19.26,3.53-5.86,8.36-10.5,14.53-13.92,6.16-3.43,12.8-5.14,19.91-5.14Zm-.15,13.6c-7.05,0-12.97,2.35-17.78,7.05-4.8,4.7-7.2,10.67-7.2,17.92,0,8.07,3.02,14.46,9.07,19.16,4.69,3.67,10.08,5.51,16.16,5.51,6.88,0,12.73-2.38,17.57-7.15,4.84-4.76,7.25-10.64,7.25-17.62s-2.44-12.83-7.31-17.64c-4.86-4.81-10.79-7.22-17.76-7.22Z"/>
      <path class="cls-11" d="m1018.81,452.28h13.9l32.58,48.05v-48.05h14.49v73.01h-13.93l-32.54-47.89v47.89h-14.49v-73.01Z"/>
      <path class="cls-11" d="m1137.13,462.21l-10.73,9.08c-3.77-5.03-7.61-7.54-11.52-7.54-1.9,0-3.45.49-4.67,1.46-1.21.98-1.81,2.08-1.81,3.3s.44,2.38,1.29,3.47c1.18,1.46,4.72,4.58,10.63,9.38,5.52,4.43,8.88,7.23,10.06,8.39,2.93,2.85,5.01,5.57,6.25,8.17,1.22,2.6,1.83,5.43,1.83,8.51,0,5.99-2.16,10.94-6.48,14.84-4.32,3.91-9.95,5.86-16.89,5.86-5.42,0-10.14-1.27-14.17-3.82-4.03-2.55-7.47-6.55-10.34-12.01l12.18-7.05c3.66,6.45,7.88,9.68,12.65,9.68,2.49,0,4.58-.69,6.28-2.08,1.69-1.39,2.54-2.99,2.54-4.81,0-1.65-.64-3.31-1.92-4.96-1.28-1.65-4.1-4.19-8.45-7.59-8.3-6.48-13.66-11.49-16.08-15.02-2.42-3.52-3.63-7.04-3.63-10.55,0-5.06,2.01-9.41,6.04-13.03,4.02-3.62,8.99-5.43,14.9-5.43,3.8,0,7.41.84,10.85,2.53,3.44,1.69,7.16,4.76,11.17,9.23Z"/>
      <path class="cls-9" d="m1181.96,525.29v-73.01h11.97c6.94,0,12.02.43,15.23,1.29,4.57,1.16,8.19,3.31,10.9,6.45,2.69,3.15,4.03,6.85,4.03,11.12,0,2.78-.62,5.3-1.83,7.57-1.23,2.27-3.22,4.39-5.98,6.38,4.62,2.08,8,4.69,10.14,7.82,2.13,3.13,3.21,6.82,3.21,11.09s-1.12,7.84-3.33,11.22c-2.21,3.37-5.07,5.9-8.54,7.57-3.49,1.67-8.31,2.5-14.46,2.5h-21.35Zm14.49-59.76v15.39h3.17c3.53,0,6.16-.71,7.87-2.14,1.72-1.42,2.58-3.36,2.58-5.8,0-2.28-.82-4.09-2.45-5.44-1.62-1.34-4.1-2.01-7.42-2.01h-3.75Zm0,27.8v18.71h3.63c6.02,0,10.08-.73,12.17-2.18,2.1-1.46,3.15-3.57,3.15-6.35,0-3.14-1.23-5.63-3.68-7.45-2.47-1.82-6.54-2.73-12.25-2.73h-3.01Z"/>
      <path class="cls-9" d="m1243.5,452.28h17.17c11.07,0,19.29,1.31,24.66,3.95,5.39,2.63,9.81,6.9,13.3,12.83,3.48,5.92,5.22,12.84,5.22,20.75,0,5.62-.97,10.79-2.92,15.51-1.95,4.71-4.64,8.63-8.07,11.74-3.44,3.11-7.14,5.26-11.14,6.45-4,1.19-10.93,1.78-20.79,1.78h-17.43v-73.01Zm14.39,13.4v46.06h6.73c6.63,0,11.43-.73,14.41-2.19,2.98-1.46,5.43-3.91,7.33-7.35,1.89-3.45,2.84-7.69,2.84-12.72,0-7.75-2.26-13.76-6.77-18.04-4.07-3.84-10.62-5.76-19.62-5.76h-4.92Z"/>
    </g>
  </g>
</svg>