<?xml version="1.0" encoding="UTF-8"?>
<svg id="Layer_2" data-name="Layer 2" xmlns="http://www.w3.org/2000/svg" xmlns:xlink="http://www.w3.org/1999/xlink" viewBox="0 0 1126.52 643.94">
  <defs>
    <style>
      .cls-1 {
        fill: url(#linear-gradient);
      }

      .cls-2 {
        fill: url(#linear-gradient-8);
      }

      .cls-3 {
        fill: url(#linear-gradient-9);
      }

      .cls-4 {
        fill: url(#linear-gradient-3);
      }

      .cls-5 {
        fill: url(#linear-gradient-4);
      }

      .cls-6 {
        fill: url(#linear-gradient-2);
      }

      .cls-7 {
        fill: url(#linear-gradient-6);
      }

      .cls-8 {
        fill: url(#linear-gradient-7);
      }

      .cls-9 {
        fill: url(#linear-gradient-5);
      }

      .cls-10 {
        fill: url(#linear-gradient-14);
      }

      .cls-11 {
        fill: url(#linear-gradient-15);
      }

      .cls-12 {
        fill: url(#linear-gradient-16);
      }

      .cls-13 {
        fill: url(#linear-gradient-17);
      }

      .cls-14 {
        fill: url(#linear-gradient-13);
      }

      .cls-15 {
        fill: url(#linear-gradient-12);
      }

      .cls-16 {
        fill: url(#linear-gradient-10);
      }

      .cls-17 {
        fill: url(#linear-gradient-11);
      }
    </style>
    <linearGradient id="linear-gradient" x1="407.91" y1="214.91" x2="771.05" y2="214.91" gradientUnits="userSpaceOnUse">
      <stop offset="0" stop-color="#2f8ccc"/>
      <stop offset="1" stop-color="#000"/>
    </linearGradient>
    <linearGradient id="linear-gradient-2" x1="330.83" y1="308.86" x2="693.97" y2="308.86" xlink:href="#linear-gradient"/>
    <linearGradient id="linear-gradient-3" x1="433.6" y1="135.15" x2="691.4" y2="135.15" xlink:href="#linear-gradient"/>
    <linearGradient id="linear-gradient-4" x1="408.77" y1="388.62" x2="667.42" y2="388.62" xlink:href="#linear-gradient"/>
    <linearGradient id="linear-gradient-5" x1="-12.36" y1="593.63" x2="510.56" y2="593.63" xlink:href="#linear-gradient"/>
    <linearGradient id="linear-gradient-6" x1="-12.36" y1="593.63" x2="510.55" y2="593.63" xlink:href="#linear-gradient"/>
    <linearGradient id="linear-gradient-7" x1="-12.36" y1="593.63" x2="510.54" y2="593.63" xlink:href="#linear-gradient"/>
    <linearGradient id="linear-gradient-8" x1="-12.37" y1="593.63" x2="510.55" y2="593.63" xlink:href="#linear-gradient"/>
    <linearGradient id="linear-gradient-9" x1="-12.38" y1="593.63" x2="510.56" y2="593.63" xlink:href="#linear-gradient"/>
    <linearGradient id="linear-gradient-10" x1="-12.37" y1="593.63" x2="510.55" y2="593.63" xlink:href="#linear-gradient"/>
    <linearGradient id="linear-gradient-11" x1="593.56" y1="593.05" x2="1085.37" y2="604.55" xlink:href="#linear-gradient"/>
    <linearGradient id="linear-gradient-12" x1="593.32" y1="592.1" x2="1086.9" y2="603.64" xlink:href="#linear-gradient"/>
    <linearGradient id="linear-gradient-13" x1="593.89" y1="590.2" x2="1085.2" y2="601.69" xlink:href="#linear-gradient"/>
    <linearGradient id="linear-gradient-14" x1="593.16" y1="588.16" x2="1085.58" y2="599.68" xlink:href="#linear-gradient"/>
    <linearGradient id="linear-gradient-15" x1="589.16" y1="586.06" x2="1087.7" y2="597.72" xlink:href="#linear-gradient"/>
    <linearGradient id="linear-gradient-16" x1="592.42" y1="584.62" x2="1085.61" y2="596.16" xlink:href="#linear-gradient"/>
    <linearGradient id="linear-gradient-17" x1="593.71" y1="582.24" x2="1085.26" y2="593.74" xlink:href="#linear-gradient"/>
  </defs>
  <g id="Layer_1-2" data-name="Layer 1">
    <g>
      <g>
        <polygon class="cls-1" points="514.97 22.16 552.65 0 771.05 132.05 769.34 394.37 711.96 429.83 407.91 249.03 409.62 202.06 729.94 391.72 729.94 154.2 514.97 22.16"/>
        <polygon class="cls-6" points="586.91 501.61 549.23 523.77 330.83 391.72 332.54 129.4 389.91 93.94 693.97 274.74 692.26 321.71 371.94 132.05 371.94 369.56 586.91 501.61"/>
        <polygon class="cls-4" points="433.6 70.01 473.86 45.2 691.4 177.25 691.4 225.11 433.6 70.01"/>
        <polygon class="cls-5" points="408.77 347.41 408.77 299.55 667.42 452.87 629.73 477.68 408.77 347.41"/>
      </g>
      <path class="cls-9" d="m0,545.64h18.53c10.15,0,17.38.95,21.68,2.83,4.3,1.89,7.77,5.02,10.39,9.4,2.62,4.38,3.93,9.56,3.93,15.55,0,6.29-1.45,11.55-4.35,15.78-2.9,4.23-7.27,7.43-13.11,9.59l21.81,42.82h-19.08l-20.78-40.8h-1.65v40.8H0v-95.98m17.37,37.42h5.5c5.58,0,9.43-.76,11.54-2.28,2.11-1.52,3.16-4.05,3.16-7.58,0-2.09-.53-3.91-1.57-5.45-1.04-1.55-2.44-2.66-4.19-3.33-1.75-.67-4.96-1.01-9.63-1.01h-4.82v19.66Z"/>
      <path class="cls-7" d="m100.64,545.64h17.76l35.21,95.98h-18.14l-7.21-19.87h-37.33l-7.44,19.87h-18.13l35.28-95.98m8.95,25.43l-12.25,32.92h24.48l-12.23-32.92Z"/>
      <polygon class="cls-8" points="167.06 545.64 184.83 545.64 184.83 581.79 215.53 581.79 215.53 545.64 233.1 545.64 233.1 641.62 215.53 641.62 215.53 599.55 184.83 599.55 184.83 641.62 167.06 641.62 167.06 545.64"/>
      <polygon class="cls-2" points="263.1 545.64 279.78 545.64 301.04 612.58 322.4 545.64 339.09 545.64 354.86 641.62 338.07 641.62 328.11 581 308.76 641.62 293.24 641.62 273.98 581 263.81 641.62 247.01 641.62 263.1 545.64"/>
      <path class="cls-3" d="m396.77,545.64h17.76l35.22,95.98h-18.14l-7.21-19.87h-37.33l-7.45,19.87h-18.13l35.28-95.98m8.95,25.43l-12.25,32.92h24.48l-12.23-32.92Z"/>
      <polygon class="cls-16" points="463.18 545.64 479.57 545.64 519.53 608.79 519.53 545.64 536.9 545.64 536.9 641.62 520.39 641.62 480.55 578.65 480.55 641.62 463.18 641.62 463.18 545.64"/>
      <polygon class="cls-17" points="584.54 545.64 635.44 545.64 635.44 563.61 618.67 563.61 618.67 641.62 600.9 641.62 600.9 563.61 584.54 563.61 584.54 545.64"/>
      <path class="cls-15" d="m648.45,545.64h18.52c10.15,0,17.38.95,21.68,2.83,4.31,1.89,7.77,5.02,10.39,9.4,2.62,4.38,3.93,9.56,3.93,15.55,0,6.29-1.45,11.55-4.35,15.78-2.9,4.23-7.28,7.43-13.11,9.59l21.81,42.82h-19.08l-20.78-40.8h-1.64v40.8h-17.37v-95.98m17.37,37.42h5.5c5.58,0,9.43-.76,11.53-2.28,2.11-1.52,3.17-4.05,3.17-7.58,0-2.09-.53-3.91-1.56-5.45-1.05-1.55-2.44-2.66-4.2-3.33-1.75-.67-4.95-1.01-9.63-1.01h-4.81v19.66Z"/>
      <path class="cls-14" d="m749.1,545.64h17.76l35.21,95.98h-18.14l-7.21-19.87h-37.33l-7.44,19.87h-18.14l35.29-95.98m8.94,25.43l-12.24,32.92h24.48l-12.24-32.92Z"/>
      <path class="cls-10" d="m815.51,545.64h20.74c13.36,0,23.3,1.73,29.8,5.19,6.5,3.46,11.85,9.08,16.06,16.87,4.21,7.78,6.32,16.87,6.32,27.27,0,7.4-1.18,14.19-3.54,20.39-2.35,6.2-5.59,11.34-9.74,15.43-4.15,4.09-8.63,6.91-13.46,8.48-4.83,1.57-13.21,2.35-25.11,2.35h-21.05v-95.98m17.36,17.76v60.46h8.16c8.03,0,13.86-.96,17.48-2.87,3.61-1.91,6.57-5.13,8.88-9.65,2.3-4.52,3.46-10.09,3.46-16.7,0-10.17-2.74-18.06-8.23-23.68-4.94-5.04-12.87-7.57-23.78-7.57h-5.96Z"/>
      <rect class="cls-11" x="903.87" y="545.64" width="17.37" height="95.98"/>
      <polygon class="cls-12" points="940.59 545.64 956.99 545.64 996.95 608.79 996.95 545.64 1014.32 545.64 1014.32 641.62 997.8 641.62 957.96 578.65 957.96 641.62 940.59 641.62 940.59 545.64"/>
      <path class="cls-13" d="m1119.97,561.33l-12.31,12.68c-7.79-8.63-16.87-12.95-27.24-12.95-9.04,0-16.61,3.12-22.72,9.35-6.1,6.23-9.15,13.81-9.15,22.73s3.17,17.03,9.5,23.43c6.33,6.4,14.14,9.6,23.44,9.6,6.03,0,11.13-1.29,15.28-3.89,4.15-2.59,7.49-6.65,10.03-12.18h-26.55v-17.12h46.13l.12,4.03c0,8.37-2.08,16.31-6.25,23.82-4.17,7.5-9.56,13.23-16.18,17.18-6.63,3.94-14.4,5.92-23.3,5.92-9.54,0-18.05-2.16-25.52-6.48-7.48-4.32-13.4-10.47-17.75-18.46-4.35-7.99-6.53-16.61-6.53-25.86,0-12.68,4.02-23.7,12.07-33.09,9.53-11.16,21.96-16.74,37.24-16.74,7.99,0,15.48,1.54,22.43,4.62,5.87,2.6,11.62,7.07,17.25,13.4Z"/>
    </g>
  </g>
</svg>